<svg width="1920" height="1272" viewBox="0 0 1920 1272" fill="none" xmlns="http://www.w3.org/2000/svg">
<rect width="1920" height="1272" fill="url(#paint0_linear_252_4536)"/>
<g clip-path="url(#clip0_252_4536)">
<path d="M1662.05 243.29L1607.07 148.063L1686.52 82.6629L1741.49 177.89" stroke="#18448D" stroke-width="10" stroke-linecap="round" stroke-linejoin="round"/>
<path d="M1652.76 277.953C1664.9 270.946 1669.06 255.427 1662.05 243.29C1655.04 231.153 1639.52 226.995 1627.39 234.002C1615.25 241.009 1611.09 256.528 1618.1 268.665C1625.11 280.802 1640.63 284.96 1652.76 277.953Z" stroke="#18448D" stroke-width="10" stroke-linecap="round" stroke-linejoin="round"/>
<path d="M1732.21 212.553C1744.34 205.545 1748.5 190.026 1741.49 177.89C1734.49 165.753 1718.97 161.595 1706.83 168.602C1694.69 175.609 1690.54 191.128 1697.54 203.265C1704.55 215.401 1720.07 219.56 1732.21 212.553Z" stroke="#18448D" stroke-width="10" stroke-linecap="round" stroke-linejoin="round"/>
</g>
<g clip-path="url(#clip1_252_4536)">
<path d="M163.051 1153.29L108.072 1058.06L187.515 992.663L242.494 1087.89" stroke="#18448D" stroke-width="10" stroke-linecap="round" stroke-linejoin="round"/>
<path d="M153.763 1187.95C165.9 1180.95 170.058 1165.43 163.051 1153.29C156.044 1141.15 140.525 1136.99 128.388 1144C116.252 1151.01 112.093 1166.53 119.1 1178.66C126.108 1190.8 141.627 1194.96 153.763 1187.95Z" stroke="#18448D" stroke-width="10" stroke-linecap="round" stroke-linejoin="round"/>
<path d="M233.207 1122.55C245.343 1115.55 249.502 1100.03 242.494 1087.89C235.487 1075.75 219.968 1071.59 207.832 1078.6C195.695 1085.61 191.537 1101.13 198.544 1113.26C205.551 1125.4 221.07 1129.56 233.207 1122.55Z" stroke="#18448D" stroke-width="10" stroke-linecap="round" stroke-linejoin="round"/>
</g>
<g clip-path="url(#clip2_252_4536)">
<path d="M1618.62 464.909L1634.13 438.059L1661.3 448.238L1645.79 475.088" stroke="#18448D" stroke-width="10" stroke-linecap="round" stroke-linejoin="round"/>
<path d="M1608.85 467.528C1612.27 469.504 1616.65 468.331 1618.62 464.909C1620.6 461.487 1619.43 457.111 1616.01 455.136C1612.58 453.16 1608.21 454.332 1606.23 457.754C1604.26 461.176 1605.43 465.552 1608.85 467.528Z" stroke="#18448D" stroke-width="10" stroke-linecap="round" stroke-linejoin="round"/>
<path d="M1636.02 477.707C1639.44 479.682 1643.82 478.51 1645.79 475.088C1647.77 471.666 1646.6 467.29 1643.18 465.314C1639.75 463.339 1635.38 464.511 1633.4 467.933C1631.43 471.355 1632.6 475.731 1636.02 477.707Z" stroke="#18448D" stroke-width="10" stroke-linecap="round" stroke-linejoin="round"/>
</g>
<g clip-path="url(#clip3_252_4536)">
<path d="M374.743 815.909L390.245 789.059L417.415 799.238L401.913 826.088" stroke="#18448D" stroke-width="5" stroke-linecap="round" stroke-linejoin="round"/>
<path d="M364.97 818.528C368.392 820.504 372.768 819.331 374.743 815.909C376.719 812.487 375.546 808.111 372.124 806.136C368.702 804.16 364.327 805.332 362.351 808.754C360.375 812.176 361.548 816.552 364.97 818.528Z" stroke="#18448D" stroke-width="5" stroke-linecap="round" stroke-linejoin="round"/>
<path d="M392.139 828.707C395.561 830.682 399.937 829.51 401.913 826.088C403.889 822.666 402.716 818.29 399.294 816.314C395.872 814.339 391.496 815.511 389.52 818.933C387.545 822.355 388.717 826.731 392.139 828.707Z" stroke="#18448D" stroke-width="5" stroke-linecap="round" stroke-linejoin="round"/>
</g>
<path d="M273.643 289.82C289.825 280.477 295.369 259.785 286.027 243.602C276.684 227.42 255.992 221.876 239.809 231.218C223.627 240.561 218.083 261.253 227.426 277.436C236.768 293.618 257.46 299.162 273.643 289.82Z" stroke="#18448D" stroke-width="10" stroke-linecap="round" stroke-linejoin="round"/>
<path d="M286.027 243.602L218.36 126.4L286.552 126.097" stroke="#18448D" stroke-width="10" stroke-linecap="round" stroke-linejoin="round"/>
<g clip-path="url(#clip4_252_4536)">
<path d="M1744.54 1098.38C1757.75 1085.17 1757.75 1063.75 1744.54 1050.54C1731.32 1037.32 1709.9 1037.32 1696.69 1050.54C1683.48 1063.75 1683.48 1085.17 1696.69 1098.38C1709.9 1111.6 1731.32 1111.6 1744.54 1098.38Z" stroke="#18448D" stroke-width="10" stroke-linecap="round" stroke-linejoin="round"/>
<path d="M1744.54 1050.54L1648.84 954.842L1714.63 936.899" stroke="#18448D" stroke-width="10" stroke-linecap="round" stroke-linejoin="round"/>
</g>
<g clip-path="url(#clip5_252_4536)">
<path d="M163.742 581.669C166.77 576.424 164.973 569.718 159.729 566.69C154.484 563.662 147.777 565.459 144.749 570.703C141.721 575.948 143.518 582.655 148.763 585.683C154.008 588.711 160.714 586.914 163.742 581.669Z" stroke="#18448D" stroke-width="6" stroke-linecap="round" stroke-linejoin="round"/>
<path d="M159.729 566.69L121.742 544.758L140.834 533.622" stroke="#18448D" stroke-width="6" stroke-linecap="round" stroke-linejoin="round"/>
</g>
<g clip-path="url(#clip6_252_4536)">
<path d="M1497.74 777.669C1500.77 772.424 1498.97 765.718 1493.73 762.69C1488.48 759.662 1481.78 761.459 1478.75 766.704C1475.72 771.948 1477.52 778.655 1482.76 781.683C1488.01 784.711 1494.71 782.914 1497.74 777.669Z" stroke="#18448D" stroke-width="6" stroke-linecap="round" stroke-linejoin="round"/>
<path d="M1493.73 762.69L1455.74 740.758L1474.83 729.622" stroke="#18448D" stroke-width="6" stroke-linecap="round" stroke-linejoin="round"/>
</g>
<defs>
<linearGradient id="paint0_linear_252_4536" x1="1596" y1="-4.10378e-05" x2="324" y2="1272" gradientUnits="userSpaceOnUse">
<stop stop-color="#1A4B9B"/>
<stop offset="1" stop-color="#00296C"/>
</linearGradient>
<clipPath id="clip0_252_4536">
<rect width="203" height="203" fill="white" transform="translate(1520 149.5) rotate(-30)"/>
</clipPath>
<clipPath id="clip1_252_4536">
<rect width="203" height="203" fill="white" transform="translate(21 1059.5) rotate(-30)"/>
</clipPath>
<clipPath id="clip2_252_4536">
<rect width="57.2378" height="57.2378" fill="white" transform="translate(1621.5 417) rotate(30)"/>
</clipPath>
<clipPath id="clip3_252_4536">
<rect width="57.2378" height="57.2378" fill="white" transform="translate(377.619 768) rotate(30)"/>
</clipPath>
<clipPath id="clip4_252_4536">
<rect width="203" height="203" fill="white" transform="translate(1565.11 1014.65) rotate(-45)"/>
</clipPath>
<clipPath id="clip5_252_4536">
<rect width="65.7948" height="65.7948" fill="white" transform="translate(105 534.029) rotate(-15)"/>
</clipPath>
<clipPath id="clip6_252_4536">
<rect width="65.7948" height="65.7948" fill="white" transform="translate(1439 730.029) rotate(-15)"/>
</clipPath>
</defs>
</svg>
