<svg width="34" height="34" viewBox="0 0 34 34" fill="none" xmlns="http://www.w3.org/2000/svg">
<path d="M21.6382 10.3563C21.6382 10.2139 21.5217 10.0974 21.3793 10.0974H19.6155C19.5184 10.0974 19.4278 10.1524 19.3857 10.2398L16.6445 15.7027H16.5377L13.7966 10.2398C13.7751 10.1972 13.7423 10.1613 13.7017 10.1362C13.6612 10.1111 13.6145 10.0976 13.5668 10.0974H11.7642C11.7221 10.0974 11.68 10.1071 11.6412 10.1297C11.515 10.1977 11.4696 10.3563 11.5376 10.4792L14.9002 16.6801H13.0554C12.913 16.6801 12.7965 16.7966 12.7965 16.939V17.816C12.7965 17.9584 12.913 18.0749 13.0554 18.0749H15.5151V19.3371H13.0554C12.913 19.3371 12.7965 19.4536 12.7965 19.596V20.473C12.7965 20.6154 12.913 20.7319 13.0554 20.7319H15.5151V22.7838C15.5151 22.9262 15.6316 23.0427 15.774 23.0427H17.3889C17.5313 23.0427 17.6478 22.9262 17.6478 22.7838V20.7287H20.1171C20.2595 20.7287 20.376 20.6122 20.376 20.4698V19.5928C20.376 19.4504 20.2595 19.3338 20.1171 19.3338H17.6478V18.0717H20.1171C20.2595 18.0717 20.376 17.9552 20.376 17.8128V16.9357C20.376 16.7933 20.2595 16.6768 20.1171 16.6768H18.253L21.6091 10.476C21.6252 10.4404 21.6382 10.3983 21.6382 10.3563ZM5.11026 16.3176C5.17105 13.368 6.3715 10.5566 8.45986 8.47273C9.51167 7.42092 10.735 6.59242 12.0975 6.01635C13.5085 5.42087 15.007 5.11665 16.5507 5.11665C18.0976 5.11665 19.5961 5.41763 21.0039 6.01635C22.3664 6.59242 23.5897 7.42092 24.6415 8.47273C24.9651 8.79636 25.2661 9.13617 25.5444 9.48893L23.9263 10.7543C23.8877 10.7842 23.8584 10.8243 23.8416 10.87C23.8248 10.9158 23.8213 10.9653 23.8315 11.013C23.8416 11.0607 23.865 11.1045 23.8989 11.1395C23.9329 11.1744 23.976 11.1991 24.0234 11.2107L29.0979 12.4502C29.2597 12.489 29.4183 12.366 29.4183 12.201L29.4442 6.97431C29.4442 6.75747 29.195 6.63449 29.0267 6.77042L27.4798 7.9808C24.9425 4.73477 20.9909 2.65381 16.5539 2.65381C8.96473 2.65381 2.79305 8.74134 2.65389 16.3046C2.65303 16.3392 2.65908 16.3735 2.67171 16.4057C2.68433 16.4379 2.70327 16.4672 2.72739 16.4919C2.75152 16.5166 2.78036 16.5363 2.8122 16.5497C2.84404 16.5631 2.87824 16.57 2.9128 16.57H4.85459C4.99375 16.57 5.10703 16.4567 5.11026 16.3176ZM30.2274 16.57H28.2856C28.1464 16.57 28.0299 16.6833 28.0267 16.8225C27.9659 19.772 26.7655 22.5835 24.6771 24.6673C23.6349 25.7138 22.3995 26.548 21.0395 27.1237C19.6284 27.7192 18.13 28.0234 16.5863 28.0234C15.0426 28.0234 13.5409 27.7224 12.1331 27.1237C10.773 26.548 9.53762 25.7138 8.49546 24.6673C8.17183 24.3437 7.87085 24.0039 7.59253 23.6511L9.20745 22.3857C9.246 22.3559 9.27535 22.3158 9.29213 22.27C9.3089 22.2243 9.31242 22.1747 9.30228 22.127C9.29213 22.0794 9.26874 22.0355 9.23479 22.0006C9.20084 21.9656 9.15771 21.9409 9.11036 21.9294L4.0358 20.6899C3.87399 20.651 3.71541 20.774 3.71541 20.9391L3.68951 26.1722C3.68951 26.389 3.93871 26.512 4.107 26.3761L5.65397 25.1657C8.19772 28.4053 12.1493 30.4862 16.5863 30.4862C24.1755 30.4862 30.3471 24.3987 30.4863 16.8354C30.4872 16.8009 30.4811 16.7665 30.4685 16.7343C30.4559 16.7022 30.4369 16.6729 30.4128 16.6481C30.3887 16.6234 30.3598 16.6037 30.328 16.5903C30.2962 16.5769 30.262 16.57 30.2274 16.57Z" fill="#1A4B9B"/>
</svg>
