<svg width="34" height="34" viewBox="0 0 34 34" fill="none" xmlns="http://www.w3.org/2000/svg">
<path d="M13.6111 8.28507C13.6111 7.50031 13.9229 6.74769 14.4778 6.19279C15.0327 5.63788 15.7853 5.32614 16.57 5.32614C17.3548 5.32614 18.1074 5.63788 18.6623 6.19279C19.2172 6.74769 19.529 7.50031 19.529 8.28507C19.529 9.06982 19.2172 9.82244 18.6623 10.3773C18.1074 10.9323 17.3548 11.244 16.57 11.244C15.7853 11.244 15.0327 10.9323 14.4778 10.3773C13.9229 9.82244 13.6111 9.06982 13.6111 8.28507ZM16.57 3.55078C15.3144 3.55078 14.1102 4.04957 13.2224 4.93742C12.3345 5.82527 11.8358 7.02946 11.8358 8.28507C11.8358 9.54068 12.3345 10.7449 13.2224 11.6327C14.1102 12.5206 15.3144 13.0194 16.57 13.0194C17.8257 13.0194 19.0298 12.5206 19.9177 11.6327C20.8055 10.7449 21.3043 9.54068 21.3043 8.28507C21.3043 7.02946 20.8055 5.82527 19.9177 4.93742C19.0298 4.04957 17.8257 3.55078 16.57 3.55078ZM6.50969 8.87685C5.88188 8.87685 5.27979 9.12625 4.83586 9.57017C4.39194 10.0141 4.14254 10.6162 4.14254 11.244C4.14254 11.8718 4.39194 12.4739 4.83586 12.9178C5.27979 13.3617 5.88188 13.6111 6.50969 13.6111C7.13749 13.6111 7.73958 13.3617 8.18351 12.9178C8.62744 12.4739 8.87683 11.8718 8.87683 11.244C8.87683 10.6162 8.62744 10.0141 8.18351 9.57017C7.73958 9.12625 7.13749 8.87685 6.50969 8.87685ZM2.36719 11.244C2.36719 10.7 2.47434 10.1613 2.68252 9.65873C2.8907 9.15614 3.19583 8.69947 3.5805 8.31481C3.96516 7.93014 4.42183 7.625 4.92442 7.41682C5.42701 7.20864 5.96569 7.1015 6.50969 7.1015C7.05369 7.1015 7.59236 7.20864 8.09495 7.41682C8.59755 7.625 9.05421 7.93014 9.43888 8.31481C9.82354 8.69947 10.1287 9.15614 10.3369 9.65873C10.545 10.1613 10.6522 10.7 10.6522 11.244C10.6522 12.3427 10.2157 13.3963 9.43888 14.1732C8.66201 14.9501 7.60835 15.3865 6.50969 15.3865C5.41103 15.3865 4.35737 14.9501 3.5805 14.1732C2.80363 13.3963 2.36719 12.3427 2.36719 11.244ZM26.6304 8.87685C26.0026 8.87685 25.4005 9.12625 24.9566 9.57017C24.5127 10.0141 24.2633 10.6162 24.2633 11.244C24.2633 11.8718 24.5127 12.4739 24.9566 12.9178C25.4005 13.3617 26.0026 13.6111 26.6304 13.6111C27.2582 13.6111 27.8603 13.3617 28.3042 12.9178C28.7481 12.4739 28.9975 11.8718 28.9975 11.244C28.9975 10.6162 28.7481 10.0141 28.3042 9.57017C27.8603 9.12625 27.2582 8.87685 26.6304 8.87685ZM22.4879 11.244C22.4879 10.1453 22.9243 9.09167 23.7012 8.31481C24.4781 7.53794 25.5317 7.1015 26.6304 7.1015C27.7291 7.1015 28.7827 7.53794 29.5596 8.31481C30.3365 9.09167 30.7729 10.1453 30.7729 11.244C30.7729 12.3427 30.3365 13.3963 29.5596 14.1732C28.7827 14.9501 27.7291 15.3865 26.6304 15.3865C25.5317 15.3865 24.4781 14.9501 23.7012 14.1732C22.9243 13.3963 22.4879 12.3427 22.4879 11.244ZM10.6522 17.4577C10.6522 16.3144 11.5801 15.3865 12.7234 15.3865H20.4167C21.56 15.3865 22.4879 16.3144 22.4879 17.4577V23.6715C22.4879 25.241 21.8644 26.7462 20.7546 27.8561C19.6448 28.9659 18.1396 29.5894 16.57 29.5894C15.0005 29.5894 13.4953 28.9659 12.3855 27.8561C11.2757 26.7462 10.6522 25.241 10.6522 23.6715V17.4577ZM12.7234 17.1619C12.645 17.1619 12.5697 17.193 12.5142 17.2485C12.4587 17.304 12.4275 17.3793 12.4275 17.4577V23.6715C12.4275 24.7702 12.864 25.8238 13.6409 26.6007C14.4177 27.3776 15.4714 27.814 16.57 27.814C17.6687 27.814 18.7224 27.3776 19.4992 26.6007C20.2761 25.8238 20.7125 24.7702 20.7125 23.6715V17.4577C20.7125 17.3793 20.6814 17.304 20.6259 17.2485C20.5704 17.193 20.4951 17.1619 20.4167 17.1619H12.7234ZM9.46862 17.4601L3.90228 18.9514C3.6395 19.0219 3.39318 19.1434 3.17738 19.309C2.96158 19.4747 2.78053 19.6813 2.64458 19.9169C2.50862 20.1526 2.42041 20.4127 2.385 20.6824C2.34959 20.9522 2.36767 21.2262 2.4382 21.489L3.43359 25.2042C3.66125 26.0546 4.07579 26.8435 4.64698 27.5134C5.21817 28.1833 5.93162 28.7173 6.73535 29.0766C7.53907 29.4358 8.41282 29.6112 9.29292 29.5899C10.173 29.5687 11.0373 29.3514 11.8227 28.9538C11.3614 28.5393 10.9563 28.0662 10.6179 27.5465C10.4892 27.5954 10.3575 27.638 10.2226 27.6743C9.69705 27.8152 9.14894 27.8512 8.60953 27.7802C8.07012 27.7092 7.54998 27.5327 7.07881 27.2606C6.60764 26.9886 6.19466 26.6264 5.86347 26.1948C5.53228 25.7632 5.28936 25.2705 5.14858 24.745L4.1532 21.0286C4.13296 20.9528 4.14366 20.872 4.18295 20.8041C4.22224 20.7362 4.28689 20.6867 4.36269 20.6664L9.46862 19.2982V17.4601ZM21.3185 28.9526C21.6775 29.1341 22.0587 29.2796 22.4619 29.3893C23.2126 29.5905 23.9956 29.6418 24.7661 29.5404C25.5367 29.4389 26.2797 29.1867 26.9528 28.7981C27.6259 28.4094 28.2158 27.892 28.6889 27.2754C29.162 26.6588 29.509 25.955 29.7101 25.2042L30.7054 21.4878C30.8475 20.9573 30.7731 20.3921 30.4986 19.9165C30.224 19.4408 29.7718 19.0937 29.2414 18.9514L23.6715 17.4601V19.297L28.7821 20.6664C28.8577 20.6869 28.9221 20.7366 28.9611 20.8044C29.0002 20.8723 29.0107 20.9529 28.9904 21.0286L27.9962 24.745C27.8463 25.3048 27.5807 25.8268 27.2164 26.2775C26.8521 26.7282 26.3973 27.0974 25.8814 27.3613C25.3655 27.6252 24.7999 27.778 24.2213 27.8097C23.6427 27.8414 23.0639 27.7513 22.5222 27.5453C22.1837 28.0661 21.7778 28.5395 21.3185 28.9526Z" fill="#1A4B9B"/>
</svg>
