<svg width="34" height="34" viewBox="0 0 34 34" fill="none" xmlns="http://www.w3.org/2000/svg">
<path d="M13.6111 8.28507C13.6111 7.50031 13.9228 6.74769 14.4777 6.19279C15.0326 5.63788 15.7852 5.32614 16.57 5.32614C17.3548 5.32614 18.1074 5.63788 18.6623 6.19279C19.2172 6.74769 19.5289 7.50031 19.5289 8.28507C19.5289 9.06982 19.2172 9.82244 18.6623 10.3773C18.1074 10.9323 17.3548 11.244 16.57 11.244C15.7852 11.244 15.0326 10.9323 14.4777 10.3773C13.9228 9.82244 13.6111 9.06982 13.6111 8.28507ZM16.57 3.55078C15.3144 3.55078 14.1102 4.04957 13.2224 4.93742C12.3345 5.82527 11.8357 7.02946 11.8357 8.28507C11.8357 9.54068 12.3345 10.7449 13.2224 11.6327C14.1102 12.5206 15.3144 13.0194 16.57 13.0194C17.8256 13.0194 19.0298 12.5206 19.9176 11.6327C20.8055 10.7449 21.3043 9.54068 21.3043 8.28507C21.3043 7.02946 20.8055 5.82527 19.9176 4.93742C19.0298 4.04957 17.8256 3.55078 16.57 3.55078ZM6.50964 8.87685C5.88184 8.87685 5.27974 9.12625 4.83582 9.57017C4.39189 10.0141 4.1425 10.6162 4.1425 11.244C4.1425 11.8718 4.39189 12.4739 4.83582 12.9178C5.27974 13.3617 5.88184 13.6111 6.50964 13.6111C7.13745 13.6111 7.73954 13.3617 8.18346 12.9178C8.62739 12.4739 8.87678 11.8718 8.87678 11.244C8.87678 10.6162 8.62739 10.0141 8.18346 9.57017C7.73954 9.12625 7.13745 8.87685 6.50964 8.87685ZM2.36714 11.244C2.36714 10.7 2.47429 10.1613 2.68247 9.65873C2.89065 9.15614 3.19579 8.69947 3.58045 8.31481C3.96512 7.93014 4.42178 7.625 4.92438 7.41682C5.42697 7.20864 5.96564 7.1015 6.50964 7.1015C7.05364 7.1015 7.59232 7.20864 8.09491 7.41682C8.5975 7.625 9.05416 7.93014 9.43883 8.31481C9.8235 8.69947 10.1286 9.15614 10.3368 9.65873C10.545 10.1613 10.6521 10.7 10.6521 11.244C10.6521 12.3427 10.2157 13.3963 9.43883 14.1732C8.66196 14.9501 7.6083 15.3865 6.50964 15.3865C5.41098 15.3865 4.35732 14.9501 3.58045 14.1732C2.80358 13.3963 2.36714 12.3427 2.36714 11.244ZM26.6304 8.87685C26.0026 8.87685 25.4005 9.12625 24.9565 9.57017C24.5126 10.0141 24.2632 10.6162 24.2632 11.244C24.2632 11.8718 24.5126 12.4739 24.9565 12.9178C25.4005 13.3617 26.0026 13.6111 26.6304 13.6111C27.2582 13.6111 27.8603 13.3617 28.3042 12.9178C28.7481 12.4739 28.9975 11.8718 28.9975 11.244C28.9975 10.6162 28.7481 10.0141 28.3042 9.57017C27.8603 9.12625 27.2582 8.87685 26.6304 8.87685ZM22.4879 11.244C22.4879 10.1453 22.9243 9.09167 23.7012 8.31481C24.478 7.53794 25.5317 7.1015 26.6304 7.1015C27.729 7.1015 28.7827 7.53794 29.5595 8.31481C30.3364 9.09167 30.7729 10.1453 30.7729 11.244C30.7729 12.3427 30.3364 13.3963 29.5595 14.1732C28.7827 14.9501 27.729 15.3865 26.6304 15.3865C25.5317 15.3865 24.478 14.9501 23.7012 14.1732C22.9243 13.3963 22.4879 12.3427 22.4879 11.244ZM10.6521 17.4577C10.6521 16.3144 11.5801 15.3865 12.7234 15.3865H20.4166C21.5599 15.3865 22.4879 16.3144 22.4879 17.4577V23.6715C22.4879 25.241 21.8644 26.7462 20.7546 27.8561C19.6447 28.9659 18.1395 29.5894 16.57 29.5894C15.0005 29.5894 13.4953 28.9659 12.3854 27.8561C11.2756 26.7462 10.6521 25.241 10.6521 23.6715V17.4577ZM12.7234 17.1619C12.6449 17.1619 12.5697 17.193 12.5142 17.2485C12.4587 17.304 12.4275 17.3793 12.4275 17.4577V23.6715C12.4275 24.7702 12.8639 25.8238 13.6408 26.6007C14.4177 27.3776 15.4713 27.814 16.57 27.814C17.6687 27.814 18.7223 27.3776 19.4992 26.6007C20.2761 25.8238 20.7125 24.7702 20.7125 23.6715V17.4577C20.7125 17.3793 20.6813 17.304 20.6258 17.2485C20.5703 17.193 20.4951 17.1619 20.4166 17.1619H12.7234ZM9.46857 17.4601L3.90223 18.9514C3.63946 19.0219 3.39314 19.1434 3.17734 19.309C2.96154 19.4747 2.78049 19.6813 2.64453 19.9169C2.50857 20.1526 2.42037 20.4127 2.38496 20.6824C2.34955 20.9522 2.36763 21.2262 2.43816 21.489L3.43354 25.2042C3.66121 26.0546 4.07574 26.8435 4.64693 27.5134C5.21812 28.1833 5.93157 28.7173 6.7353 29.0766C7.53903 29.4358 8.41277 29.6112 9.29287 29.5899C10.173 29.5687 11.0372 29.3514 11.8227 28.9538C11.3613 28.5393 10.9563 28.0662 10.6178 27.5465C10.4892 27.5954 10.3574 27.638 10.2225 27.6743C9.697 27.8152 9.14889 27.8512 8.60949 27.7802C8.07008 27.7092 7.54994 27.5327 7.07876 27.2606C6.60759 26.9886 6.19462 26.6264 5.86343 26.1948C5.53224 25.7632 5.28931 25.2705 5.14853 24.745L4.15315 21.0286C4.13292 20.9528 4.14362 20.872 4.1829 20.8041C4.22219 20.7362 4.28684 20.6867 4.36264 20.6664L9.46857 19.2982V17.4601ZM21.3185 28.9526C21.6775 29.1341 22.0586 29.2796 22.4618 29.3893C23.2125 29.5905 23.9955 29.6418 24.7661 29.5404C25.5367 29.4389 26.2797 29.1867 26.9528 28.7981C27.6258 28.4094 28.2158 27.892 28.6888 27.2754C29.1619 26.6588 29.5089 25.955 29.71 25.2042L30.7054 21.4878C30.8475 20.9573 30.7731 20.3921 30.4985 19.9165C30.224 19.4408 29.7718 19.0937 29.2413 18.9514L23.6714 17.4601V19.297L28.7821 20.6664C28.8577 20.6869 28.922 20.7366 28.9611 20.8044C29.0001 20.8723 29.0107 20.9529 28.9904 21.0286L27.9962 24.745C27.8463 25.3048 27.5806 25.8268 27.2163 26.2775C26.852 26.7282 26.3972 27.0974 25.8813 27.3613C25.3654 27.6252 24.7999 27.778 24.2213 27.8097C23.6427 27.8414 23.0638 27.7513 22.5222 27.5453C22.1837 28.0661 21.7777 28.5395 21.3185 28.9526Z" fill="white"/>
</svg>
